<svg xmlns="http://www.w3.org/2000/svg" fill="none" viewBox="0 0 128 128">
    <svg width="128" height="128" viewBox="0 0 128 128" fill="none" xmlns="http://www.w3.org/2000/svg">
        <g clip-path="url(#clip0_5_2)">
            <rect width="128" height="128" fill="#EAC536" />
            <path
                d="M5.66761 75.0909V72.4545H38.2812V75.0909H23.3949V119H20.554V75.0909H5.66761ZM48.6335 119V72.4545H74.5426V75.0909H51.4744V94.3864H73.1562V97.0227H51.4744V116.364H75.0881V119H48.6335ZM121.776 87H118.866C118.563 85.4242 117.995 83.9015 117.162 82.4318C116.329 80.947 115.253 79.6136 113.935 78.4318C112.632 77.2348 111.116 76.2879 109.389 75.5909C107.662 74.8939 105.753 74.5455 103.662 74.5455C100.601 74.5455 97.7831 75.3636 95.2074 77C92.6468 78.6212 90.5938 81.0076 89.0483 84.1591C87.518 87.3106 86.7528 91.1667 86.7528 95.7273C86.7528 100.318 87.518 104.189 89.0483 107.341C90.5938 110.492 92.6468 112.879 95.2074 114.5C97.7831 116.106 100.601 116.909 103.662 116.909C105.753 116.909 107.662 116.568 109.389 115.886C111.116 115.189 112.632 114.25 113.935 113.068C115.253 111.871 116.329 110.53 117.162 109.045C117.995 107.561 118.563 106.03 118.866 104.455H121.776C121.442 106.333 120.798 108.174 119.844 109.977C118.904 111.78 117.662 113.417 116.116 114.886C114.586 116.341 112.776 117.5 110.685 118.364C108.609 119.212 106.268 119.636 103.662 119.636C99.7831 119.636 96.3665 118.652 93.4119 116.682C90.4574 114.697 88.1392 111.909 86.4574 108.318C84.7907 104.727 83.9574 100.53 83.9574 95.7273C83.9574 90.9242 84.7907 86.7273 86.4574 83.1364C88.1392 79.5455 90.4574 76.7652 93.4119 74.7955C96.3665 72.8106 99.7831 71.8182 103.662 71.8182C106.268 71.8182 108.609 72.25 110.685 73.1136C112.776 73.9621 114.586 75.1136 116.116 76.5682C117.662 78.0076 118.904 79.6288 119.844 81.4318C120.798 83.2348 121.442 85.0909 121.776 87Z"
                fill="black" />
            <path
                d="M35.0909 22.5C34.9697 20.9848 34.4015 19.803 33.3864 18.9545C32.3864 18.1061 30.8636 17.6818 28.8182 17.6818C27.5152 17.6818 26.447 17.8409 25.6136 18.1591C24.7955 18.4621 24.1894 18.8788 23.7955 19.4091C23.4015 19.9394 23.197 20.5455 23.1818 21.2273C23.1515 21.7879 23.25 22.2955 23.4773 22.75C23.7197 23.1894 24.0985 23.5909 24.6136 23.9545C25.1288 24.303 25.7879 24.6212 26.5909 24.9091C27.3939 25.197 28.3485 25.4545 29.4545 25.6818L33.2727 26.5C35.8485 27.0455 38.053 27.7652 39.8864 28.6591C41.7197 29.553 43.2197 30.6061 44.3864 31.8182C45.553 33.0152 46.4091 34.3636 46.9545 35.8636C47.5152 37.3636 47.803 39 47.8182 40.7727C47.803 43.8333 47.0379 46.4242 45.5227 48.5455C44.0076 50.6667 41.8409 52.2803 39.0227 53.3864C36.2197 54.4924 32.8485 55.0455 28.9091 55.0455C24.8636 55.0455 21.3333 54.447 18.3182 53.25C15.3182 52.053 12.9848 50.2121 11.3182 47.7273C9.66667 45.2273 8.83333 42.0303 8.81818 38.1364H20.8182C20.8939 39.5606 21.25 40.7576 21.8864 41.7273C22.5227 42.697 23.4167 43.4318 24.5682 43.9318C25.7348 44.4318 27.1212 44.6818 28.7273 44.6818C30.0758 44.6818 31.2045 44.5152 32.1136 44.1818C33.0227 43.8485 33.7121 43.3864 34.1818 42.7955C34.6515 42.2045 34.8939 41.5303 34.9091 40.7727C34.8939 40.0606 34.6591 39.4394 34.2045 38.9091C33.7652 38.3636 33.0379 37.8788 32.0227 37.4545C31.0076 37.0152 29.6364 36.6061 27.9091 36.2273L23.2727 35.2273C19.1515 34.3333 15.9015 32.8409 13.5227 30.75C11.1591 28.6439 9.98485 25.7727 10 22.1364C9.98485 19.1818 10.7727 16.5985 12.3636 14.3864C13.9697 12.1591 16.1894 10.4242 19.0227 9.18182C21.8712 7.93939 25.1364 7.31818 28.8182 7.31818C32.5758 7.31818 35.8258 7.94697 38.5682 9.20454C41.3106 10.4621 43.4242 12.2348 44.9091 14.5227C46.4091 16.7955 47.1667 19.4545 47.1818 22.5H35.0909ZM65.2614 7.95454V54.5H52.625V7.95454H65.2614Z"
                fill="black" />
            <path
                d="M92.1811 8.46068C92.5082 5.71537 96.4918 5.71537 96.8189 8.46068C97.0863 10.7052 100.068 11.2983 101.174 9.32704C102.527 6.9159 106.207 8.44033 105.459 11.1018C104.847 13.2778 107.375 14.967 109.152 13.569C111.324 11.8591 114.141 14.6759 112.431 16.8484C111.033 18.6247 112.722 21.1527 114.898 20.5409C117.56 19.7925 119.084 23.4728 116.673 24.8256C114.702 25.9316 115.295 28.9137 117.539 29.1811C120.285 29.5082 120.285 33.4918 117.539 33.8189C115.295 34.0863 114.702 37.0684 116.673 38.1744C119.084 39.5272 117.56 43.2075 114.898 42.4591C112.722 41.8473 111.033 44.3753 112.431 46.1516C114.141 48.3241 111.324 51.1409 109.152 49.431C107.375 48.033 104.847 49.7222 105.459 51.8982C106.207 54.5597 102.527 56.0841 101.174 53.673C100.068 51.7017 97.0863 52.2948 96.8189 54.5393C96.4918 57.2846 92.5082 57.2846 92.1811 54.5393C91.9137 52.2948 88.9316 51.7017 87.8256 53.673C86.4728 56.0841 82.7925 54.5597 83.5409 51.8982C84.1527 49.7222 81.6247 48.033 79.8484 49.431C77.6759 51.1409 74.8591 48.3241 76.569 46.1516C77.967 44.3754 76.2778 41.8473 74.1018 42.4591C71.4403 43.2075 69.9159 39.5272 72.327 38.1744C74.2983 37.0684 73.7052 34.0863 71.4607 33.8189C68.7154 33.4918 68.7154 29.5082 71.4607 29.1811C73.7052 28.9137 74.2983 25.9316 72.327 24.8256C69.9159 23.4728 71.4403 19.7925 74.1018 20.5409C76.2778 21.1527 77.967 18.6246 76.569 16.8484C74.8591 14.6759 77.6759 11.8591 79.8484 13.569C81.6246 14.967 84.1527 13.2778 83.5409 11.1018C82.7925 8.44033 86.4728 6.9159 87.8256 9.32704C88.9316 11.2983 91.9137 10.7052 92.1811 8.46068Z"
                fill="black" />
            <circle cx="95.0312" cy="32.0312" r="9.03125" fill="#EAC536" />
        </g>
        <rect x="1" y="1" width="126" height="126" stroke="black" stroke-width="2" />
        <defs>
            <clipPath id="clip0_5_2">
                <rect width="128" height="128" fill="white" />
            </clipPath>
        </defs>
    </svg>

    <style>
        path {
            fill: #000;
        }

        /* @media (prefers-color-scheme: dark) {
            path { fill: #FFF; }
        } */
    </style>
</svg>