<svg width="370" height="163" viewBox="0 0 370 163" fill="none" xmlns="http://www.w3.org/2000/svg">
<path fill-rule="evenodd" clip-rule="evenodd" d="M314 48.1281C313.148 48.5003 312.31 48.9084 311.489 49.3523C306.398 52.0795 302.352 56.1136 299.352 61.4545C296.352 66.7727 294.852 73.3182 294.852 81.0909C294.852 88.8182 296.318 95.3523 299.25 100.693C302.205 106.034 306.216 110.08 311.284 112.83C312.169 113.308 313.075 113.744 314 114.14V48.1281ZM325 116.81C326.155 116.906 327.333 116.955 328.534 116.955C333.648 116.955 338.136 116.17 342 114.602C345.864 113.034 349.102 110.966 351.716 108.398C354.352 105.807 356.386 102.989 357.818 99.9432C359.25 96.875 360.08 93.8636 360.307 90.9091L341.08 90.7727C340.852 92.2727 340.409 93.625 339.75 94.8295C339.114 96.0114 338.284 97.0227 337.261 97.8636C336.239 98.7045 335.034 99.3523 333.648 99.8068C332.261 100.239 330.693 100.455 328.943 100.455C327.536 100.455 326.221 100.304 325 100.002V116.81ZM325 62.2175V45.3781C326.156 45.2776 327.334 45.2273 328.534 45.2273C332.943 45.2273 337 45.8295 340.705 47.0341C344.409 48.2386 347.659 50 350.455 52.3182C353.25 54.6136 355.5 57.4432 357.205 60.8068C358.909 64.1705 359.943 68.0227 360.307 72.3636H341.08C340.943 70.7727 340.58 69.3295 339.989 68.0341C339.42 66.7386 338.625 65.625 337.602 64.6932C336.602 63.7386 335.386 63.0114 333.955 62.5114C332.523 61.9886 330.898 61.7273 329.08 61.7273C327.616 61.7273 326.257 61.8907 325 62.2175ZM228.273 61.4545H218.28V46.1818H228.273V61.4545ZM167.591 46.1818H207.28V61.4545H207.273V116H188.591V61.4545H167.591V46.1818ZM112.807 49.3523C113.526 48.9673 114.257 48.6093 115 48.2782V113.904C114.257 113.573 113.526 113.215 112.807 112.83C107.693 110.057 103.625 106.011 100.602 100.693C97.6023 95.3523 96.1023 88.8182 96.1023 81.0909C96.1023 73.3182 97.6023 66.7727 100.602 61.4545C103.625 56.1136 107.693 52.0795 112.807 49.3523ZM130.057 116.955C128.676 116.955 127.323 116.89 126 116.76V99.9758C127.247 100.295 128.599 100.455 130.057 100.455C133.193 100.455 135.83 99.7159 137.966 98.2386C140.125 96.7386 141.75 94.5568 142.841 91.6932C143.955 88.8068 144.511 85.2727 144.511 81.0909C144.511 76.9091 143.955 73.3864 142.841 70.5227C141.75 67.6364 140.125 65.4545 137.966 63.9773C135.83 62.4773 133.193 61.7273 130.057 61.7273C128.599 61.7273 127.247 61.8893 126 62.2134V45.4216C127.323 45.292 128.676 45.2273 130.057 45.2273C136.375 45.2273 142.102 46.6023 147.239 49.3523C152.375 52.0795 156.455 56.1136 159.477 61.4545C162.5 66.7727 164.011 73.3182 164.011 81.0909C164.011 88.8636 162.5 95.4205 159.477 100.761C156.455 106.08 152.375 110.114 147.239 112.864C142.102 115.591 136.375 116.955 130.057 116.955ZM24.27 46.0543C22.0614 46.5167 19.9828 47.1728 18.0341 48.0227C13.7841 49.8864 10.4546 52.4886 8.04548 55.8295C5.65911 59.1477 4.47729 63.0227 4.50002 67.4545C4.47729 72.9091 6.23866 77.2159 9.78411 80.375C13.3523 83.5114 18.2273 85.75 24.4091 87.0909L31.3637 88.5909C33.9546 89.1591 36.0114 89.7727 37.5341 90.4318C39.0568 91.0682 40.1478 91.7955 40.8068 92.6136C41.4887 93.4091 41.8409 94.3409 41.8637 95.4091C41.8617 95.5073 41.8572 95.6046 41.8501 95.701V116.064C44.0835 115.653 46.1449 115.075 48.0341 114.33C52.2614 112.67 55.5114 110.25 57.7841 107.068C60.0568 103.886 61.2046 100 61.2273 95.4091C61.2046 92.75 60.7728 90.2955 59.9318 88.0455C59.1137 85.7955 57.8296 83.7727 56.0796 81.9773C54.3296 80.1591 52.0796 78.5795 49.3296 77.2386C46.5796 75.8977 43.2728 74.8182 39.4091 74L33.6818 72.7727C32.0228 72.4318 30.5909 72.0455 29.3864 71.6136C28.1818 71.1818 27.1932 70.7045 26.4205 70.1818C25.6478 69.6364 25.0796 69.0341 24.7159 68.375C24.3825 67.7081 24.2339 66.9651 24.27 66.146V46.0543ZM35.27 60.9435C37.0917 61.2103 38.5282 61.7898 39.5796 62.6818C41.1023 63.9545 41.9546 65.7273 42.1364 68H60.2728C60.25 63.4318 59.1137 59.4432 56.8637 56.0341C54.6364 52.6023 51.4659 49.9432 47.3523 48.0568C43.8704 46.4601 39.8429 45.5392 35.27 45.294V60.9435ZM30.8501 101.203V116.784C25.6168 116.605 20.9925 115.719 16.9773 114.125C12.4773 112.33 8.97729 109.568 6.4773 105.841C4.00002 102.091 2.75002 97.2955 2.72729 91.4545H20.7273C20.8409 93.5909 21.375 95.3864 22.3296 96.8409C23.2841 98.2955 24.625 99.3977 26.3523 100.148C27.6659 100.711 29.1652 101.062 30.8501 101.203ZM87.3921 46.1818V116H68.4375V46.1818H87.3921ZM262 46.1818H285.724V61.4545H262V46.1818ZM251 46.1818H235.406V116H251V46.1818ZM262 116H285.588V100.727H262V116ZM262 88.7273H283.134V73.4545H262V88.7273Z" fill="white"/>
<path d="M272.179 32.0994C272.061 31.7159 271.897 31.3726 271.689 31.0696C271.485 30.7618 271.239 30.4991 270.95 30.2812C270.666 30.0634 270.339 29.9001 269.97 29.7912C269.601 29.6776 269.198 29.6207 268.763 29.6207C267.982 29.6207 267.286 29.8172 266.675 30.2102C266.064 30.6032 265.583 31.1809 265.233 31.9432C264.887 32.7008 264.714 33.6241 264.714 34.7131C264.714 35.8116 264.887 36.742 265.233 37.5043C265.579 38.2666 266.059 38.8466 266.675 39.2443C267.29 39.6373 268.005 39.8338 268.82 39.8338C269.558 39.8338 270.197 39.6918 270.737 39.4077C271.282 39.1236 271.701 38.7211 271.994 38.2003C272.288 37.6747 272.435 37.0592 272.435 36.3537L273.031 36.446H269.082V34.3864H274.984V36.1335C274.984 37.3788 274.719 38.456 274.189 39.3651C273.659 40.2741 272.929 40.9749 272.001 41.4673C271.073 41.955 270.008 42.1989 268.805 42.1989C267.465 42.1989 266.289 41.8982 265.276 41.2969C264.267 40.6908 263.479 39.8314 262.911 38.7188C262.347 37.6013 262.065 36.2756 262.065 34.7415C262.065 33.5672 262.231 32.5185 262.562 31.5952C262.899 30.6719 263.367 29.8883 263.969 29.2443C264.57 28.5956 265.276 28.1032 266.085 27.767C266.895 27.4261 267.776 27.2557 268.727 27.2557C269.532 27.2557 270.283 27.3741 270.979 27.6108C271.675 27.8428 272.293 28.1742 272.832 28.6051C273.377 29.036 273.824 29.5473 274.175 30.1392C274.525 30.7311 274.755 31.3845 274.864 32.0994H272.179ZM277.532 42V27.4545H282.987C284.104 27.4545 285.042 27.6487 285.799 28.0369C286.562 28.4252 287.137 28.9697 287.525 29.6705C287.918 30.3665 288.115 31.1785 288.115 32.1065C288.115 33.0393 287.916 33.849 287.518 34.5355C287.125 35.2173 286.545 35.7453 285.778 36.1193C285.011 36.4886 284.069 36.6733 282.951 36.6733H279.066V34.4858H282.596C283.25 34.4858 283.785 34.3958 284.201 34.2159C284.618 34.0312 284.926 33.7637 285.125 33.4134C285.328 33.0582 285.43 32.6226 285.43 32.1065C285.43 31.5904 285.328 31.1501 285.125 30.7855C284.921 30.4162 284.611 30.1368 284.194 29.9474C283.778 29.7533 283.24 29.6562 282.582 29.6562H280.167V42H277.532ZM285.047 35.4091L288.647 42H285.707L282.17 35.4091H285.047ZM299.709 27.4545H302.344V36.9574C302.344 37.9991 302.098 38.9152 301.605 39.706C301.118 40.4967 300.431 41.1146 299.546 41.5597C298.66 42 297.626 42.2202 296.442 42.2202C295.254 42.2202 294.217 42 293.331 41.5597C292.446 41.1146 291.759 40.4967 291.272 39.706C290.784 38.9152 290.54 37.9991 290.54 36.9574V27.4545H293.175V36.7372C293.175 37.3433 293.308 37.883 293.573 38.3565C293.843 38.83 294.221 39.2017 294.709 39.4716C295.197 39.7367 295.775 39.8693 296.442 39.8693C297.11 39.8693 297.687 39.7367 298.175 39.4716C298.667 39.2017 299.046 38.83 299.311 38.3565C299.577 37.883 299.709 37.3433 299.709 36.7372V27.4545ZM305.208 42V27.4545H310.663C311.78 27.4545 312.718 27.6629 313.475 28.0795C314.237 28.4962 314.813 29.0691 315.201 29.7983C315.594 30.5227 315.79 31.3466 315.79 32.2699C315.79 33.2027 315.594 34.0312 315.201 34.7557C314.808 35.4801 314.228 36.0507 313.461 36.4673C312.694 36.8793 311.749 37.0852 310.627 37.0852H307.012V34.919H310.272C310.925 34.919 311.46 34.8054 311.877 34.5781C312.294 34.3509 312.602 34.0384 312.8 33.6406C313.004 33.2429 313.106 32.786 313.106 32.2699C313.106 31.7538 313.004 31.2992 312.8 30.9062C312.602 30.5133 312.291 30.2079 311.87 29.9901C311.453 29.7675 310.916 29.6562 310.258 29.6562H307.843V42H305.208ZM331.076 34.7273C331.076 36.2945 330.783 37.6368 330.196 38.7543C329.613 39.867 328.818 40.7192 327.809 41.3111C326.806 41.9029 325.667 42.1989 324.393 42.1989C323.119 42.1989 321.978 41.9029 320.97 41.3111C319.966 40.7145 319.171 39.8598 318.583 38.7472C318.001 37.6297 317.71 36.2898 317.71 34.7273C317.71 33.16 318.001 31.8201 318.583 30.7074C319.171 29.59 319.966 28.7353 320.97 28.1435C321.978 27.5516 323.119 27.2557 324.393 27.2557C325.667 27.2557 326.806 27.5516 327.809 28.1435C328.818 28.7353 329.613 29.59 330.196 30.7074C330.783 31.8201 331.076 33.16 331.076 34.7273ZM328.427 34.7273C328.427 33.6241 328.254 32.6937 327.909 31.9361C327.568 31.1738 327.094 30.5985 326.488 30.2102C325.882 29.8172 325.184 29.6207 324.393 29.6207C323.602 29.6207 322.904 29.8172 322.298 30.2102C321.692 30.5985 321.216 31.1738 320.87 31.9361C320.529 32.6937 320.359 33.6241 320.359 34.7273C320.359 35.8305 320.529 36.7633 320.87 37.5256C321.216 38.2831 321.692 38.8584 322.298 39.2514C322.904 39.6397 323.602 39.8338 324.393 39.8338C325.184 39.8338 325.882 39.6397 326.488 39.2514C327.094 38.8584 327.568 38.2831 327.909 37.5256C328.254 36.7633 328.427 35.8305 328.427 34.7273Z" fill="black"/>
</svg>
