<svg width="359" height="72" viewBox="0 0 359 72" fill="none" xmlns="http://www.w3.org/2000/svg">
<path fill-rule="evenodd" clip-rule="evenodd" d="M312 3.1281C311.148 3.50033 310.31 3.90839 309.489 4.35227C304.398 7.07954 300.352 11.1136 297.352 16.4545C294.352 21.7727 292.852 28.3182 292.852 36.0909C292.852 43.8182 294.318 50.3523 297.25 55.6932C300.205 61.0341 304.216 65.0795 309.284 67.8295C310.169 68.3078 311.075 68.7445 312 69.1396V3.1281ZM323 71.8097C324.155 71.9062 325.333 71.9545 326.534 71.9545C331.648 71.9545 336.136 71.1705 340 69.6023C343.864 68.0341 347.102 65.9659 349.716 63.3977C352.352 60.8068 354.386 57.9886 355.818 54.9432C357.25 51.875 358.08 48.8636 358.307 45.9091L339.08 45.7727C338.852 47.2727 338.409 48.625 337.75 49.8295C337.114 51.0114 336.284 52.0227 335.261 52.8636C334.239 53.7045 333.034 54.3523 331.648 54.8068C330.261 55.2386 328.693 55.4545 326.943 55.4545C325.536 55.4545 324.221 55.3038 323 55.0025V71.8097ZM323 17.2175V0.378144C324.156 0.277561 325.334 0.22727 326.534 0.22727C330.943 0.22727 335 0.829542 338.705 2.03409C342.409 3.23863 345.659 5 348.455 7.31818C351.25 9.61363 353.5 12.4432 355.205 15.8068C356.909 19.1705 357.943 23.0227 358.307 27.3636H339.08C338.943 25.7727 338.58 24.3295 337.989 23.0341C337.42 21.7386 336.625 20.625 335.602 19.6932C334.602 18.7386 333.386 18.0114 331.955 17.5114C330.523 16.9886 328.898 16.7273 327.08 16.7273C325.616 16.7273 324.257 16.8907 323 17.2175ZM226.273 16.4545H216.28V1.18182H226.273V16.4545ZM165.591 1.18182H205.28V16.4545H205.273V71H186.591V16.4545H165.591V1.18182ZM110.807 4.35227C111.526 3.9673 112.257 3.60928 113 3.2782V68.9036C112.257 68.5725 111.526 68.2145 110.807 67.8295C105.693 65.0568 101.625 61.0114 98.6023 55.6932C95.6023 50.3523 94.1023 43.8182 94.1023 36.0909C94.1023 28.3182 95.6023 21.7727 98.6023 16.4545C101.625 11.1136 105.693 7.07954 110.807 4.35227ZM128.057 71.9545C126.676 71.9545 125.323 71.8898 124 71.7602V54.9758C125.247 55.295 126.599 55.4545 128.057 55.4545C131.193 55.4545 133.83 54.7159 135.966 53.2386C138.125 51.7386 139.75 49.5568 140.841 46.6932C141.955 43.8068 142.511 40.2727 142.511 36.0909C142.511 31.9091 141.955 28.3864 140.841 25.5227C139.75 22.6364 138.125 20.4545 135.966 18.9773C133.83 17.4773 131.193 16.7273 128.057 16.7273C126.599 16.7273 125.247 16.8893 124 17.2134V0.421588C125.323 0.292043 126.676 0.22727 128.057 0.22727C134.375 0.22727 140.102 1.60227 145.239 4.35227C150.375 7.07954 154.455 11.1136 157.477 16.4545C160.5 21.7727 162.011 28.3182 162.011 36.0909C162.011 43.8636 160.5 50.4205 157.477 55.7614C154.455 61.0795 150.375 65.1136 145.239 67.8636C140.102 70.5909 134.375 71.9545 128.057 71.9545ZM22.27 1.05435C20.0614 1.51666 17.9828 2.17278 16.0341 3.02272C11.7841 4.88636 8.45457 7.48863 6.04548 10.8295C3.65911 14.1477 2.47729 18.0227 2.50002 22.4545C2.47729 27.9091 4.23866 32.2159 7.78411 35.375C11.3523 38.5114 16.2273 40.75 22.4091 42.0909L29.3637 43.5909C31.9546 44.1591 34.0114 44.7727 35.5341 45.4318C37.0568 46.0682 38.1478 46.7955 38.8068 47.6136C39.4887 48.4091 39.8409 49.3409 39.8637 50.4091C39.8617 50.5073 39.8572 50.6046 39.8501 50.701V71.0636C42.0835 70.653 44.1449 70.075 46.0341 69.3295C50.2614 67.6705 53.5114 65.25 55.7841 62.0682C58.0568 58.8864 59.2046 55 59.2273 50.4091C59.2046 47.75 58.7728 45.2955 57.9318 43.0455C57.1137 40.7955 55.8296 38.7727 54.0796 36.9773C52.3296 35.1591 50.0796 33.5795 47.3296 32.2386C44.5796 30.8977 41.2728 29.8182 37.4091 29L31.6818 27.7727C30.0228 27.4318 28.5909 27.0455 27.3864 26.6136C26.1818 26.1818 25.1932 25.7045 24.4205 25.1818C23.6478 24.6364 23.0796 24.0341 22.7159 23.375C22.3825 22.7081 22.2339 21.9651 22.27 21.146V1.05435ZM33.27 15.9435C35.0917 16.2103 36.5282 16.7898 37.5796 17.6818C39.1023 18.9545 39.9546 20.7273 40.1364 23H58.2728C58.25 18.4318 57.1137 14.4432 54.8637 11.0341C52.6364 7.60227 49.4659 4.94318 45.3523 3.05682C41.8704 1.46013 37.8429 0.539187 33.27 0.293995V15.9435ZM28.8501 56.2028V71.7843C23.6168 71.6054 18.9925 70.719 14.9773 69.125C10.4773 67.3295 6.97729 64.5682 4.4773 60.8409C2.00002 57.0909 0.750022 52.2955 0.727295 46.4545H18.7273C18.8409 48.5909 19.375 50.3864 20.3296 51.8409C21.2841 53.2955 22.625 54.3977 24.3523 55.1477C25.6659 55.7107 27.1652 56.0624 28.8501 56.2028ZM85.3921 1.18182V71H66.4375V1.18182H85.3921ZM260 1.18182H283.724V16.4545H260V1.18182ZM249 1.18182H233.406V71H249V1.18182ZM260 71H283.588V55.7273H260V71ZM260 43.7273H281.134V28.4545H260V43.7273Z" fill="white"/>
</svg>